<?xml version="1.0" encoding="UTF-8"?>
<svg id="Capa_1" data-name="Capa 1" xmlns="http://www.w3.org/2000/svg" viewBox="0 0 176 86">
  <defs>
    <style>
      .cls-1 {
        fill: #fff;
      }
    </style>
  </defs>
  <path class="cls-1" d="M41.77,58.07c-13.5,8.99-20.11,10.67-23.23,11.58-6.15,1.89-9.18.48-7.81-5.41.92-3.99,15.34-42.87,22.96-58.64,1.01-2.07-.83-2.55-2.39-2.14-1.1.34-1.84.91-2.21,1.78-6.79,18.14-14.23,36.19-20.29,54.68-2.2,6.56-2.48,11.28.18,13.29,1.1.85,2.85,1.06,5.05.75,8.82-1.26,24.15-10.7,28.56-13.71,2.11-1.49.83-3.33-.83-2.18Z"/>
  <path class="cls-1" d="M167.68,19.19c-.37.05-.64.18-.92.5-2.29,2.53-9.18,10.12-12.49,10.59-2.94.42-1.74-5.9-3.67-6.82-.28-.24-.73-.26-1.19-.2-2.29.33-6.15,3.45-8.72,5.74-.37.42-.83.21-.73-.45.55-2.28.83-5.17-2.11-4.66-2.02.29-5.42,3.53-7.25,5.62-1.38,1.39-1.47,1.4-.64-.46,1.1-2.18,1.19-2.74,2.39-4.75,1.47-1.95-.18-4.11-1.93-3.86-.64.09-1.29.46-1.84,1.27-.75,1.24-1.4,2.47-2,3.69-2.4,1.3-6.18,3.79-14.16,9.54-1.1.8,2.57-7.07,3.03-8.15.64-1.74-.83-2.27-1.84-2.22-.92.04-1.56.31-2.2,1.32-1.01,1.61-1.75,3.55-5.79,7.8-1.19,1.18-4.41,4.58-5.88,5.15-2.29.6,3.03-9.25,3.4-10.4.28-.96-.55-1.39-1.56-1.25-1.1.16-2.57,1.01-3.03,2.36-.04.09-.09.2-.13.3-3.43,1.86-10.05,5.62-11.99,6.75-.37.24-.92.04-.83-.43.28-2.79.92-6.93,1.1-9.34.09-.66-.37-1.23-1.1-1.4-.64-.18-1.47.12-1.84.72-.37.33-1.1,2.73-1.38,3.13-.18.03-.28.04-.46.07-6.17,1.51-12.33,5.61-13.86,9.3-3.18,2.95-6.86,5.98-9.56,6.71-4.32,1.17-4.68-2.82-4.04-6.95.28-1.42-.73-2.19-1.84-2.03-.46.07-.92.31-1.29.73-3.86,5.23-6.89,9.06-10.65,11.34-3.67,2.27.09-7.91,1.56-10.78.28-.5.37-.97.28-1.23-.09-.81-1.1-1.22-2.11-1.08-.83.12-1.65.51-2.02,1.3-2.29,4.37-5.05,14.86-1.47,16.46,2.85,1.16,10.19-5.77,12.4-8.38.55-.63,1.38-.56,1.56.33.46,2.41,1.65,4.08,4.41,4.15,3.92.07,8.88-3.64,13.04-7.63.48.32,1.22.46,2.21.32,2.2-.31,5.79-2.02,10.47-6.27.83-.76,1.1-.52,1.01.31-.18,1.4-.28,2.98-.46,4.29-.09.2-.18.3-.37.42-8.63,7.38-23.6,23.93-26.26,33.68-.46,1.99-1.47,6.82,2.75,8.15.37.13,1.01.22,1.93.09,1.65-.24,4.13-1.14,6.7-3.43,10.28-9.09,16.16-25.26,18.46-37.89,0,0,.09-.2.18-.39,2.23-1.76,7.77-5.33,12.32-8.22-1.25,3.24-2.76,7.83-2.31,10.1.18.89.74,1.09,1.47.98,3.49-.5,11.94-9.51,12.12-9.53.37-.14-1.65,4-3.03,6.4-.46.8-1.47,1.49-2.11,2.04-5.05,3.84-12.86,11.66-16.9,17.1-2.57,3.49-5.23,8.09-4.68,11.32.46,3.06,2.76,4.01,5.33,3.65,5.42-.77,9.37-6.48,11.85-11.05,3.49-6.37,6.98-13.85,9.64-20.84,1.93-4.05,11.45-10.86,16.5-14.32-1.47,3.47-2.6,6.98-3.82,10.77-.46,1.35.55,2.95,1.84,2.77.37-.05.73-.29,1.1-.71.83-1.04,1.84-2.19,2.66-3.41,1.1-1.35,8.63-11.42,10.38-9.93.74.45-1.56,4.81-1.28,7.07.18.89.73,1.36,1.47,1.26.37-.05.74-.2,1.19-.63,1.01-.97,6.61-7.09,8.63-7.38.37-.05.64.09.73.45.27,1.71,1.29,5.05,3.86,5.42,5.05.38,15.61-10.76,16.99-13.99.28-.68-.46-1.13-1.19-1.02ZM80.4,34.23c-1.26,1.61-6.23,4.48-7.37,4.48-.03,0-.06,0-.09,0-.54-.1-.63-.42-.63-.6-.03-1.38,5.12-4.75,7.17-5.21.65-.14,1.06-.04,1.21.31.12.28.03.61-.3,1.02ZM80.07,47.01c-2.2,8.95-5.6,16.68-10.19,23.4-4.32,6.22-7.25,8.01-9.92,8.02-7.44-1.6,10.56-23.18,14.14-26.72,1.56-1.78,3.21-3.49,4.96-5.02.37-.42,1.19-.17,1.01.32ZM103.85,46.37c-2.02,5.43-9.64,24.24-16.16,25.17-1.74.25-3.12-.75-2.48-3.14,2.02-7.36,12.4-17.47,17.91-22.48.37-.42.92-.04.73.45Z"/>
</svg>